
        <svg xmlns="http://www.w3.org/2000/svg" xmlns:xlink="http://www.w3.org/1999/xlink" version="1.1" width="3194.174757281553" 
        height="893.2038834951456" viewBox="0 0 3194.174757281553 893.2038834951456">
			
			<g transform="scale(9.70873786407767) translate(10, 10)">
				<defs id="SvgjsDefs1163"></defs><g id="SvgjsG1164" featureKey="symbolFeature-0" transform="matrix(0.9972298536709696,0,0,0.9972298536709696,-0.5983379359783942,-10.86980502460057)" fill="#202020"><g xmlns="http://www.w3.org/2000/svg"><g><path d="M56.3,49.2c-0.2-0.3-0.6-0.3-0.9-0.1L38.8,60.9c-0.3,0.2-0.3,0.6-0.1,0.9C38.8,62,39,62,39.2,62c0.1,0,0.3,0,0.4-0.1    l16.5-11.8C56.4,49.9,56.5,49.5,56.3,49.2z"></path><path d="M76,50.8c-0.2-0.3-0.6-0.3-0.9-0.1L58.6,62.5c-0.3,0.2-0.3,0.6-0.1,0.9c0.1,0.2,0.3,0.3,0.5,0.3c0.1,0,0.3,0,0.4-0.1    l16.5-11.8C76.1,51.5,76.2,51.1,76,50.8z"></path><path d="M61.8,53.9c0.2,0,0.4-0.1,0.6-0.2l3-2.2c0.4-0.3,0.5-0.9,0.2-1.3c-0.3-0.4-0.9-0.5-1.3-0.2l-3,2.2    c-0.4,0.3-0.5,0.9-0.2,1.3C61.2,53.8,61.5,53.9,61.8,53.9z"></path><path d="M67.8,49.5c0.2,0,0.4-0.1,0.6-0.2l1.3-0.9c0.4-0.3,0.5-0.9,0.2-1.3c-0.3-0.4-0.9-0.5-1.3-0.2l-1.3,0.9    c-0.4,0.3-0.5,0.9-0.2,1.3C67.3,49.3,67.5,49.5,67.8,49.5z"></path><path d="M59.5,54.6c-0.3-0.4-0.9-0.5-1.3-0.2l-3,2.2C54.7,57,54.6,57.5,55,58c0.2,0.3,0.5,0.4,0.8,0.4c0.2,0,0.4-0.1,0.6-0.2    l3-2.2C59.7,55.6,59.8,55.1,59.5,54.6z"></path><path d="M52.1,58.9l-3,2.2c-0.4,0.3-0.5,0.9-0.2,1.3c0.2,0.3,0.5,0.4,0.8,0.4c0.2,0,0.4-0.1,0.6-0.2l3-2.2    c0.4-0.3,0.5-0.9,0.2-1.3C53.1,58.6,52.5,58.6,52.1,58.9z"></path><path d="M46.1,63.3l-3,2.2c-0.4,0.3-0.5,0.9-0.2,1.3c0.2,0.3,0.5,0.4,0.8,0.4c0.2,0,0.4-0.1,0.6-0.2l3-2.2    c0.4-0.3,0.5-0.9,0.2-1.3C47.1,63.1,46.5,63,46.1,63.3z"></path></g><g><path d="M77.4,39.7H64.5H51.7H38.8h-9.8h-2.8H26H13.4c0.7,2.9,3.3,5.1,6.4,5.1c3,0,5.5-2,6.3-4.7c0.5,1.6,1.5,2.9,2.9,3.8v25.8    H10.2V44.1c1.6-0.9,2.9-2.5,3.3-4.3h-3.3h-4H0.6c0.6,2.6,2.8,4.7,5.5,5v32h77.7V44.9c3.1,0,5.8-2.2,6.4-5.1h-6.4H77.4z M32.4,69.7    V44.9c2.8,0,5.2-1.8,6.1-4.2h0.6c0.9,2.5,3.3,4.2,6.1,4.2c2.8,0,5.2-1.8,6.1-4.2H52c0.9,2.5,3.3,4.2,6.1,4.2    c2.8,0,5.2-1.8,6.1-4.2h0.6c0.9,2.5,3.3,4.2,6.1,4.2s5.2-1.8,6.1-4.2h0.6c0.4,1,1,1.9,1.9,2.7v26.4H32.4z"></path><polygon points="38.8,38.5 38.8,38.5 38.8,16.4 30,16.4 26.3,38.5   "></polygon><polygon points="50.4,16.4 51.7,38.5 64.5,38.5 64.5,38.5 60.8,16.4   "></polygon><polygon points="77.4,38.5 90.2,38.5 82.7,16.4 71.1,16.4   "></polygon><rect x="8" y="10.9" width="74.4" height="3.8"></rect><polygon points="19.7,16.4 8.1,16.4 0.6,38.5 13.4,38.5   "></polygon></g><path d="M26.2,59.3h-0.5c-0.5,0-0.9-0.4-0.9-0.9v-5.9c0-0.5,0.4-0.9,0.9-0.9h0.5c0.5,0,0.9,0.4,0.9,0.9v5.9   C27.2,58.9,26.8,59.3,26.2,59.3z"></path><rect x="3.1" y="79.3" width="83.3" height="3.8"></rect></g></g><g id="SvgjsG1165" featureKey="nameFeature-0" transform="matrix(0.610683324038341,0,0,0.610683324038341,107.38779596047554,20.52523741833103)" fill="#88b06a"><path d="M2.64 37.04 l0 -21.44 c0 -2 0.96 -3.12 3.48 -3.12 c14.92 0 19.12 9.92 19.12 16.04 c0 6.04 -3.88 11.48 -10.68 11.48 l-8.36 0 c-2.6 0 -3.56 -0.64 -3.56 -2.96 z M7.68 17.28 l0 17.92 l3.88 0 c5.96 0 8 -2 8 -6.32 c0 -6.48 -5.32 -11.6 -11.88 -11.6 z M35.592999999999996 15.079999999999998 l0 22.32 c0 1.52 -0.8 2.72 -2.52 2.72 s-2.52 -1.2 -2.52 -2.72 l0 -22.32 c0 -1.52 0.8 -2.72 2.52 -2.72 s2.52 1.2 2.52 2.72 z M57.426 17.28 l-9.24 0 c-1.24 0 -1.92 0.56 -1.92 1.6 c0 3.64 16.12 0.28 16.12 11.44 c0 5.04 -3.8 9.68 -10.64 9.68 l-8.6 0 c-1.44 0 -2.6 -0.76 -2.6 -2.4 s1.16 -2.4 2.6 -2.4 l6.56 0 c5.2 0 7.4 -1.28 7.4 -4.68 c0 -7.32 -16.12 -1.48 -16.12 -11.56 c0 -4.16 3.16 -6.48 8.16 -6.48 l8.28 0 c1.44 0 2.6 0.76 2.6 2.4 s-1.16 2.4 -2.6 2.4 z M77.259 17.28 l0 20.12 c0 1.52 -0.8 2.72 -2.52 2.72 s-2.52 -1.2 -2.52 -2.72 l0 -20.12 l-4.64 0 c-1.44 0 -2.6 -0.76 -2.6 -2.4 s1.16 -2.4 2.6 -2.4 l14.32 0 c1.44 0 2.6 0.76 2.6 2.4 s-1.16 2.4 -2.6 2.4 l-4.64 0 z M93.132 25.16 l0 12.28 c0 1.48 -0.8 2.68 -2.52 2.68 s-2.52 -1.2 -2.52 -2.68 l0 -22.28 c0 -1.48 0.8 -2.68 2.52 -2.68 l8.56 0 c6.08 0 8.4 1.76 8.4 5.68 c0 2.72 -1.52 4.88 -3.64 6.28 c3.44 3.12 5.28 8.24 5.28 12.08 c0 1.84 -0.36 3.6 -2.36 3.6 c-2.2 0 -2.64 -1.48 -2.68 -3.36 c-0.12 -6.04 -3.4 -11.6 -11.04 -11.6 z M93.132 17.04 l0 3.8 c2.2 0 3.24 0.24 4.24 0.44 l2.44 0.64 c1.08 0 2.72 -1.8 2.72 -3 c0 -1.28 -1 -1.88 -2.72 -1.88 l-6.68 0 z M118.925 15.079999999999998 l0 22.32 c0 1.52 -0.8 2.72 -2.52 2.72 s-2.52 -1.2 -2.52 -2.72 l0 -22.32 c0 -1.52 0.8 -2.72 2.52 -2.72 s2.52 1.2 2.52 2.72 z M126.878 27.68 l5.2 0 c1.28 0 2.32 0.68 2.32 2.16 s-1.04 2.16 -2.32 2.16 l-5.2 0 c-1.32 0 -2.36 -0.68 -2.36 -2.16 s1.04 -2.16 2.36 -2.16 z M163.751 23.84 l0 13.28 c0 2 -1.12 3.12 -4.8 3.12 c-16.08 0 -20.32 -9.92 -20.56 -15.56 c-0.24 -7.04 4.04 -12.2 11.24 -12.2 l10.16 0 c1.44 0 2.6 0.76 2.6 2.4 s-1.16 2.4 -2.6 2.4 l-8.76 0 c-4.8 0 -6.96 2.56 -6.96 6.52 c0 7.64 6.56 11.64 14.64 11.64 l0 -10 l-6.08 0 c-1.36 0 -2.48 -0.72 -2.48 -2.28 s1.12 -2.28 2.48 -2.28 l7.68 0 c2.8 0 3.44 1.36 3.44 2.96 z M174.224 25.16 l0 12.28 c0 1.48 -0.8 2.68 -2.52 2.68 s-2.52 -1.2 -2.52 -2.68 l0 -22.28 c0 -1.48 0.8 -2.68 2.52 -2.68 l8.56 0 c6.08 0 8.4 1.76 8.4 5.68 c0 2.72 -1.52 4.88 -3.64 6.28 c3.44 3.12 5.28 8.24 5.28 12.08 c0 1.84 -0.36 3.6 -2.36 3.6 c-2.2 0 -2.64 -1.48 -2.68 -3.36 c-0.12 -6.04 -3.4 -11.6 -11.04 -11.6 z M174.224 17.04 l0 3.8 c2.2 0 3.24 0.24 4.24 0.44 l2.44 0.64 c1.08 0 2.72 -1.8 2.72 -3 c0 -1.28 -1 -1.88 -2.72 -1.88 l-6.68 0 z M201.017 28.32 l-1.04 0 c-1.08 2.92 -1.68 6.76 -1.96 9.44 c-0.16 1.48 -1 2.36 -2.44 2.36 c-2.16 0 -2.6 -1.28 -2.6 -3.2 c0 -1.24 0.68 -8.44 5.92 -18.32 c2.28 -4.32 3.56 -6.36 6.36 -6.36 c2.32 0 3.68 2.04 5.96 6.36 c5.24 9.88 6.32 17.08 6.32 18.32 c0 2.08 -1 3.2 -2.4 3.2 c-2 0 -2.48 -1.16 -2.88 -3.32 c-1.04 -5.76 -6.76 -8.48 -11.24 -8.48 z M201.177 24.32 l0.52 0 c1.96 0 5.4 0.56 8.04 2.72 l0.08 -0.08 c-1.2 -3.44 -2.72 -6.8 -4.68 -9.92 c-1.6 2.4 -2.92 4.8 -3.96 7.28 z M234.64999999999998 15.079999999999998 l0 17.28 c0.12 4.76 -3.84 7.88 -8.56 7.88 c-3.92 0 -7.16 -1.72 -7.16 -3.76 c0 -1.44 0.92 -2.36 2.48 -2.36 c1.8 0 2.2 1.32 4.6 1.32 c2.16 0 3.6 -1.4 3.6 -3.72 l0 -16.64 c0 -1.52 0.8 -2.72 2.52 -2.72 s2.52 1.2 2.52 2.72 z M247.12300000000002 28.32 l-1.04 0 c-1.08 2.92 -1.68 6.76 -1.96 9.44 c-0.16 1.48 -1 2.36 -2.44 2.36 c-2.16 0 -2.6 -1.28 -2.6 -3.2 c0 -1.24 0.68 -8.44 5.92 -18.32 c2.28 -4.32 3.56 -6.36 6.36 -6.36 c2.32 0 3.68 2.04 5.96 6.36 c5.24 9.88 6.32 17.08 6.32 18.32 c0 2.08 -1 3.2 -2.4 3.2 c-2 0 -2.48 -1.16 -2.88 -3.32 c-1.04 -5.76 -6.76 -8.48 -11.24 -8.48 z M247.28300000000002 24.32 l0.52 0 c1.96 0 5.4 0.56 8.04 2.72 l0.08 -0.08 c-1.2 -3.44 -2.72 -6.8 -4.68 -9.92 c-1.6 2.4 -2.92 4.8 -3.96 7.28 z M268.436 36.56 l0 -21.48 c0 -1.52 0.84 -2.72 2.52 -2.72 s2.52 1.2 2.52 2.72 l0 20.12 l7.72 0 c1.44 0 2.6 0.76 2.6 2.4 s-1.16 2.4 -2.6 2.4 l-9.28 0 c-2.64 0 -3.48 -1.36 -3.48 -3.44 z M292.189 17.04 l0 3.44 l9.6 0 c1.36 0 2.44 0.72 2.44 2.28 s-1.08 2.28 -2.44 2.28 l-9.6 0 l0 10.4 l10 0 c1.36 0 2.44 0.72 2.44 2.28 s-1.08 2.28 -2.44 2.28 l-11.8 0 c-2.64 0 -3.48 -1.36 -3.48 -3.44 l0 -21.36 c0 -1.52 0.84 -2.72 2.2 -2.72 l13.08 0 c1.36 0 2.44 0.72 2.44 2.28 s-1.08 2.28 -2.44 2.28 l-10 0 z M325.18199999999996 17.28 l-9.24 0 c-1.24 0 -1.92 0.56 -1.92 1.6 c0 3.64 16.12 0.28 16.12 11.44 c0 5.04 -3.8 9.68 -10.64 9.68 l-8.6 0 c-1.44 0 -2.6 -0.76 -2.6 -2.4 s1.16 -2.4 2.6 -2.4 l6.56 0 c5.2 0 7.4 -1.28 7.4 -4.68 c0 -7.32 -16.12 -1.48 -16.12 -11.56 c0 -4.16 3.16 -6.48 8.16 -6.48 l8.28 0 c1.44 0 2.6 0.76 2.6 2.4 s-1.16 2.4 -2.6 2.4 z"></path></g>
			</g>
		</svg>
	